<?xml version="1.0" encoding="UTF-8" standalone="no"?>
<svg width="22px" height="22px" viewBox="0 0 22 22" version="1.1" xmlns="http://www.w3.org/2000/svg" xmlns:xlink="http://www.w3.org/1999/xlink">
    <!-- Generator: Sketch 47.1 (45422) - http://www.bohemiancoding.com/sketch -->
    <title>dribbble</title>
    <desc>Created with Sketch.</desc>
    <defs></defs>
    <g id="Page-1" stroke="none" stroke-width="1" fill="none" fill-rule="evenodd">
        <g id="dribbble" fill="#F6F6F7">
            <g id="Group" transform="translate(4.000000, 4.000000)">
                <path d="M6.65318987,5.63898734 C5.95886076,4.41159494 5.21739241,3.37665823 5.068,3.17108861 C3.8744557,3.74012658 2.98075949,4.83868354 2.69420253,6.16088608 L2.73708861,6.16088608 C3.13582278,6.16088608 4.7903038,6.12827848 6.65318987,5.63898734 Z" id="Fill-1"></path>
                <path d="M9.78351899,3.82589873 C9.02060759,3.15655696 8.02182278,2.75020253 6.92946835,2.75020253 C6.59293671,2.75020253 6.2661519,2.78901266 5.95194937,2.86237975 C6.12774684,3.10037975 6.86921519,4.12432911 7.54546835,5.362 C9.00820253,4.80891139 9.66301266,3.99070886 9.78351899,3.82589873 Z" id="Fill-2"></path>
                <path d="M8.18237975,6.66134177 C8.21144304,6.73063291 8.24050633,6.79974684 8.2681519,6.86832911 C8.60397468,6.82756962 8.93837975,6.81091139 9.25594937,6.81091139 C10.2417975,6.81091139 11.0662025,6.96526582 11.2607848,7.00478481 C11.2441266,6.00794937 10.8882785,5.09139241 10.3034684,4.36658228 C10.152481,4.56240506 9.42075949,5.42987342 7.9041519,6.05420253 C8.00162025,6.25427848 8.09518987,6.45718987 8.18237975,6.66134177 Z" id="Fill-3"></path>
                <path d="M7.22559494,7.09126582 C7.27344304,7.07602532 7.32182278,7.06149367 7.37037975,7.04767089 C7.26653165,6.81640506 7.15577215,6.58443038 7.03881013,6.356 C5.11567089,6.92716456 3.24870886,6.97146835 2.71156962,6.97146835 C2.66177215,6.97146835 2.62437975,6.97146835 2.59797468,6.97075949 C2.59726582,7.00602532 2.5958481,7.04217722 2.5958481,7.07744304 C2.59655696,8.17670886 3.00858228,9.1804557 3.68696203,9.94460759 C3.86967089,9.64210127 5.06037975,7.79037975 7.22559494,7.09126582 Z" id="Fill-4"></path>
                <path d="M6.92946835,0.141772152 C3.10197468,0.141772152 0,3.2444557 0,7.07124051 C0,10.8978481 3.10197468,13.9998228 6.92946835,13.9998228 C10.7560759,13.9998228 13.8580506,10.8978481 13.8580506,7.07124051 C13.8580506,3.2444557 10.7560759,0.141772152 6.92946835,0.141772152 Z M6.92946835,12.1931139 C4.10093671,12.1931139 1.80050633,9.89551899 1.80050633,7.07124051 C1.80050633,4.24678481 4.10093671,1.94918987 6.92946835,1.94848101 C9.75729114,1.94918987 12.0575443,4.24678481 12.0575443,7.07124051 C12.0575443,9.89551899 9.75729114,12.1931139 6.92946835,12.1931139 Z" id="Fill-5"></path>
                <path d="M8.55275949,7.60341772 C9.09131646,9.08972152 9.32524051,10.3087848 9.38265823,10.6417722 C10.3318228,9.98837975 11.0080759,8.96726582 11.2033671,7.7863038 C11.0392658,7.73632911 10.3304051,7.53767089 9.42501266,7.53767089 C9.14944304,7.53767089 8.85526582,7.55716456 8.55275949,7.60341772 Z" id="Fill-6"></path>
                <path d="M7.68192405,7.81749367 C5.30812658,8.64402532 4.41035443,10.2611139 4.28648101,10.5040759 C5.01873418,11.0681519 5.93458228,11.4046835 6.92946835,11.4046835 C7.52189873,11.4046835 8.08756962,11.2848861 8.60255696,11.0688608 C8.53326582,10.6660506 8.28126582,9.36529114 7.68670886,7.81607595 C7.68458228,7.81678481 7.68316456,7.81749367 7.68192405,7.81749367 Z" id="Fill-7"></path>
            </g>
        </g>
    </g>
</svg>