<?xml version="1.0" encoding="UTF-8" standalone="no"?>
<svg width="22px" height="22px" viewBox="0 0 22 22" version="1.1" xmlns="http://www.w3.org/2000/svg" xmlns:xlink="http://www.w3.org/1999/xlink">
    <!-- Generator: Sketch 47.1 (45422) - http://www.bohemiancoding.com/sketch -->
    <title>github</title>
    <desc>Created with Sketch.</desc>
    <defs></defs>
    <g id="Page-1" stroke="none" stroke-width="1" fill="none" fill-rule="evenodd">
        <g id="github" fill="#F6F6F7">
            <path d="M11.1764896,4 C7.21373495,4 4,7.21329435 4,11.1773708 C4,14.3483675 6.05627927,17.0382293 8.90828179,17.9872813 C9.26737062,18.0533713 9.39822876,17.8317496 9.39822876,17.6414104 C9.39822876,17.4713389 9.39206037,17.0197241 9.38853557,16.420949 C7.39217787,16.8544992 6.97096446,15.458679 6.97096446,15.458679 C6.64448001,14.6294702 6.17391942,14.4087297 6.17391942,14.4087297 C5.52227231,13.9637239 6.2232666,13.9725359 6.2232666,13.9725359 C6.94364727,14.0232049 7.3225631,14.712303 7.3225631,14.712303 C7.96275461,15.8089559 9.00257014,15.4921646 9.41144676,15.3084345 C9.47665553,14.8449235 9.66214805,14.5285729 9.86702695,14.3492487 C8.27337747,14.1681622 6.59777643,13.5522037 6.59777643,10.8019797 C6.59777643,10.0185933 6.8775573,9.37752057 7.33666229,8.876118 C7.26264153,8.69459088 7.01634624,7.96451701 7.40715826,6.97669226 C7.40715826,6.97669226 8.00945819,6.78370954 9.38060477,7.71249393 C9.95294391,7.5529968 10.56714,7.47368883 11.1773708,7.47060463 C11.7871609,7.47368883 12.4009164,7.5529968 12.9741368,7.71249393 C14.3444021,6.78370954 14.9458209,6.97669226 14.9458209,6.97669226 C15.3375141,7.96451701 15.0912188,8.69459088 15.0176386,8.876118 C15.4776248,9.37752057 15.7552027,10.0185933 15.7552027,10.8019797 C15.7552027,13.5592533 14.0769581,14.1659592 12.478462,14.3435209 C12.7357723,14.5651426 12.9653248,15.0030988 12.9653248,15.6728105 C12.9653248,16.6319963 12.9565128,17.4061302 12.9565128,17.6414104 C12.9565128,17.833512 13.0860491,18.0568961 13.4499845,17.9868407 C16.2997841,17.0355857 18.3543009,14.3474863 18.3543009,11.1773708 C18.3543009,7.21329435 15.140566,4 11.1764896,4" id="Fill-3"></path>
        </g>
    </g>
</svg>