<?xml version="1.0" encoding="UTF-8" standalone="no"?>
<svg width="22px" height="22px" viewBox="0 0 22 22" version="1.1" xmlns="http://www.w3.org/2000/svg" xmlns:xlink="http://www.w3.org/1999/xlink">
    <!-- Generator: Sketch 47.1 (45422) - http://www.bohemiancoding.com/sketch -->
    <title>linkedin</title>
    <desc>Created with Sketch.</desc>
    <defs></defs>
    <g id="Page-1" stroke="none" stroke-width="1" fill="none" fill-rule="evenodd">
        <g id="linkedin" fill="#F6F6F7">
            <g id="Group-7" transform="translate(3.000000, 4.000000)">
                <path d="M11.3477467,4.31200088 C9.73074667,4.3109863 9.00797333,5.18353218 8.60038667,5.79837265 L8.60038667,5.82779571 L8.57985333,5.82779571 C8.58806667,5.81663524 8.59422667,5.80851853 8.60038667,5.79837265 L8.60141333,4.52100606 L5.55529333,4.51694771 C5.59328,5.36007053 5.544,13.5285204 5.544,13.5285204 L8.59114667,13.5346079 L8.59628,8.50022112 C8.59730667,8.22932606 8.61681333,7.96248935 8.69894667,7.76971759 C8.91968,7.23300041 9.42172,6.6739623 10.2635867,6.67497688 C11.3672533,6.67497688 11.8076933,7.50389547 11.80564,8.71531383 L11.79948,13.5376517 L14.8466267,13.5417101 L14.8538133,8.37339759 C14.8568933,5.60560088 13.3518,4.31403006 11.3477467,4.31200088" id="Fill-6"></path>
                <g id="Fill-7-+-Fill-8">
                    <path d="M2.03588,0.0779783529 C0.993813333,0.0769637647 0.312106667,0.749635765 0.31108,1.63435671 C0.310053333,2.49878588 0.969173333,3.19276424 1.99070667,3.195808 L2.01226667,3.195808 C3.07384,3.19682259 3.73912,2.50487341 3.73912,1.63942965 C3.72064,0.753694118 3.07794667,0.0779783529 2.03588,0.0779783529" id="Fill-7"></path>
                    <polyline id="Fill-8" points="0.473293333 13.4350325 3.52249333 13.4390908 3.53481333 4.42650353 0.485613333 4.42244518 0.473293333 13.4350325"></polyline>
                </g>
            </g>
        </g>
    </g>
</svg>