<?xml version="1.0" encoding="UTF-8" standalone="no"?>
<svg width="22px" height="22px" viewBox="0 0 22 22" version="1.1" xmlns="http://www.w3.org/2000/svg" xmlns:xlink="http://www.w3.org/1999/xlink">
    <!-- Generator: Sketch 47.1 (45422) - http://www.bohemiancoding.com/sketch -->
    <title>mail</title>
    <desc>Created with Sketch.</desc>
    <defs></defs>
    <g id="Page-1" stroke="none" stroke-width="1" fill="none" fill-rule="evenodd">
        <g id="mail" fill="#F6F6F7">
            <path d="M18.0505753,9.89270137 L18.0505753,6.64825046 C18.0505753,6.29000678 17.7439499,6 17.3663046,6 L3.68427078,6 C3.30662546,6 3,6.29000678 3,6.64825046 L3,16.3528157 C3,16.7099932 3.30662546,17 3.68427078,17 L17.3663046,17 C17.7439499,17 18.0505753,16.7099932 18.0505753,16.3528157 L18.0505753,9.89696617 L18.0505753,9.89270137 L18.0505753,9.89270137 Z M16.6820338,7.29543472 L16.6820338,9.44489677 L10.5258513,11.7745469 L4.36854157,9.44489677 L4.36854157,7.29543472 L16.6820338,7.29543472 L16.6820338,7.29543472 Z M4.36854157,15.7066977 L4.36854157,10.8394882 L10.2710816,13.0710478 C10.3522472,13.1030338 10.4390493,13.1179606 10.5258513,13.1179606 C10.6103988,13.1179606 10.6983281,13.1030338 10.7794937,13.0710478 L16.6820338,10.8394882 L16.6820338,15.7066977 L4.36854157,15.7066977 L4.36854157,15.7066977 Z" id="Fill-14"></path>
        </g>
    </g>
</svg>