<?xml version="1.0" encoding="UTF-8" standalone="no"?>
<svg width="22px" height="22px" viewBox="0 0 22 22" version="1.1" xmlns="http://www.w3.org/2000/svg" xmlns:xlink="http://www.w3.org/1999/xlink">
    <!-- Generator: Sketch 47.1 (45422) - http://www.bohemiancoding.com/sketch -->
    <title>twitter</title>
    <desc>Created with Sketch.</desc>
    <defs></defs>
    <g id="Page-1" stroke="none" stroke-width="1" fill="none" fill-rule="evenodd">
        <g id="twitter" fill="#F6F6F7">
            <path d="M18.0831786,6.42820418 C17.5284781,6.66973706 16.9323344,6.82725851 16.3064367,6.90391895 C16.9461488,6.53006805 17.4339027,5.93463698 17.6698098,5.2289409 C17.0736662,5.57548808 16.4084506,5.8275224 15.7060425,5.96299084 C15.1417781,5.37176034 14.3384188,5.00000973 13.4489852,5.00000973 C11.7402525,4.99580916 10.3535012,6.35259388 10.3524386,8.03072237 C10.3524386,8.26490425 10.38113,8.49698585 10.4310743,8.71961616 C7.85841148,8.58939843 5.58541451,7.381734 4.06370733,5.54608408 C3.79592087,5.9913447 3.64077474,6.51326576 3.64077474,7.06669111 C3.63864945,8.11893438 4.18591146,9.04411034 5.01583696,9.59018469 C4.50364222,9.57443255 4.0297027,9.43476353 3.61208334,9.21003293 L3.61208334,9.24678794 C3.60995805,10.7138377 4.67366537,11.9435551 6.09017073,12.2176424 C5.82982279,12.2922026 5.55459781,12.3268573 5.27405962,12.3268573 C5.07640771,12.3268573 4.88194373,12.3090049 4.69491827,12.2733 C5.08278358,13.4809644 6.22406396,14.3536332 7.57681064,14.380937 C6.5173539,15.1937476 5.18373482,15.6757633 3.73747541,15.673663 C3.48881655,15.6715627 3.24122034,15.6568607 3,15.6327074 C4.36549842,16.4927745 5.99240742,16.9968431 7.7351447,16.9999936 C13.4266696,17.0062944 16.5412812,12.3930163 16.5465944,8.38777098 C16.547657,8.25440282 16.5412812,8.12418509 16.5370306,7.99396736 C17.1416754,7.56445888 17.6676845,7.03308654 18.0831786,6.42820418" id="Fill-4"></path>
        </g>
    </g>
</svg>