<?xml version="1.0" encoding="UTF-8" standalone="no"?>
<svg width="22px" height="22px" viewBox="0 0 22 22" version="1.1" xmlns="http://www.w3.org/2000/svg" xmlns:xlink="http://www.w3.org/1999/xlink">
    <!-- Generator: Sketch 47.1 (45422) - http://www.bohemiancoding.com/sketch -->
    <title>youtube</title>
    <desc>Created with Sketch.</desc>
    <defs>
        <polygon id="path-1" points="3.19015748 4.5144357 0.0031496063 4.5144357 0.0031496063 0.0504461942 3.19015748 0.0504461942 6.37716535 0.0504461942 6.37716535 4.5144357 3.19015748 4.5144357"></polygon>
    </defs>
    <g id="Page-1" stroke="none" stroke-width="1" fill="none" fill-rule="evenodd">
        <g id="youtube">
            <g id="yt_logo_mono_dark" transform="translate(1.000000, 9.000000)">
                <g id="Group-3">
                    <mask id="mask-2" fill="white">
                        <use xlink:href="#path-1"></use>
                    </mask>
                    <g id="Clip-2"></g>
                    <path d="M2.55086614,3.23900262 L2.55086614,1.32582677 L4.20761155,2.28246719 L2.55086614,3.23900262 Z M6.24388451,0.747454068 C6.17055118,0.47312336 5.95448819,0.257007874 5.68010499,0.183674541 C5.18278215,0.0504461942 3.18855643,0.0504461942 3.18855643,0.0504461942 C3.18855643,0.0504461942 1.1943832,0.0504461942 0.697060367,0.183674541 C0.422677165,0.257007874 0.206614173,0.47312336 0.13328084,0.747454068 C0,1.2448294 0,2.2824147 0,2.2824147 C0,2.2824147 0,3.32005249 0.13328084,3.81737533 C0.206614173,4.09170604 0.422677165,4.30787402 0.697060367,4.38115486 C1.1943832,4.5144357 3.18855643,4.5144357 3.18855643,4.5144357 C3.18855643,4.5144357 5.18278215,4.5144357 5.68010499,4.38115486 C5.95448819,4.30787402 6.17055118,4.09170604 6.24388451,3.81737533 C6.37716535,3.32005249 6.37716535,2.2824147 6.37716535,2.2824147 C6.37716535,2.2824147 6.37716535,1.2448294 6.24388451,0.747454068 L6.24388451,0.747454068 Z" id="Fill-1" fill="#F6F6F7" mask="url(#mask-2)"></path>
                </g>
                <path d="M9.96330709,3.67370079 C9.99821522,3.58251969 10.015748,3.43354331 10.015748,3.22682415 L10.015748,2.35574803 C10.015748,2.15506562 9.99821522,2.00839895 9.96330709,1.91564304 C9.92834646,1.82293963 9.86677165,1.77653543 9.77863517,1.77653543 C9.69349081,1.77653543 9.63338583,1.82293963 9.59847769,1.91564304 C9.56351706,2.00839895 9.54603675,2.15506562 9.54603675,2.35574803 L9.54603675,3.22682415 C9.54603675,3.43354331 9.56272966,3.58251969 9.59622047,3.67370079 C9.6296063,3.76493438 9.6903937,3.81049869 9.77863517,3.81049869 C9.86677165,3.81049869 9.92834646,3.76493438 9.96330709,3.67370079 Z M9.25648294,4.11149606 C9.13023622,4.02645669 9.04052493,3.89417323 8.98740157,3.71475066 C8.93417323,3.53543307 8.90761155,3.29674541 8.90761155,2.99879265 L8.90761155,2.59291339 C8.90761155,2.29191601 8.93795276,2.05018373 8.99879265,1.86776903 C9.05958005,1.68535433 9.15454068,1.55238845 9.28383202,1.4687664 C9.41301837,1.38514436 9.58251969,1.34330709 9.79233596,1.34330709 C9.99905512,1.34330709 10.1647244,1.38593176 10.2893963,1.47102362 C10.4140157,1.55616798 10.5052493,1.68918635 10.5630446,1.87007874 C10.6207349,2.05097113 10.6496588,2.29191601 10.6496588,2.59291339 L10.6496588,2.99879265 C10.6496588,3.29674541 10.6215223,3.53616798 10.5653018,3.71706037 C10.5090289,3.89795276 10.4177953,4.03023622 10.2916535,4.11375328 C10.1654593,4.19737533 9.99448819,4.2392126 9.77863517,4.2392126 C9.55664042,4.2392126 9.38257218,4.19658793 9.25648294,4.11149606 L9.25648294,4.11149606 Z" id="Fill-4" fill="#F6F6F7"></path>
                <path d="M19.0223622,1.8288189 C18.9904987,1.86834646 18.9691339,1.93296588 18.9585302,2.02262467 C18.9478215,2.11233596 18.9426247,2.24834646 18.9426247,2.43076115 L18.9426247,2.63144357 L19.4031496,2.63144357 L19.4031496,2.43076115 C19.4031496,2.25144357 19.3970604,2.11538058 19.3849344,2.02262467 C19.3727559,1.92992126 19.3507612,1.86456693 19.3188451,1.82656168 C19.2868766,1.78855643 19.2374803,1.76950131 19.1706037,1.76950131 C19.1036745,1.76950131 19.0542782,1.78934383 19.0223622,1.8288189 Z M18.9426247,3.00540682 L18.9426247,3.14682415 C18.9426247,3.32619423 18.9478215,3.46073491 18.9585302,3.5503937 C18.9691339,3.64010499 18.9911286,3.70545932 19.0246719,3.74650919 C19.0581102,3.78755906 19.1097113,3.80808399 19.1797375,3.80808399 C19.2739108,3.80808399 19.3385827,3.77160105 19.3735433,3.69858268 C19.4084514,3.62566929 19.4274541,3.50404199 19.4304987,3.33375328 L19.9732283,3.36566929 C19.976273,3.39007874 19.9777953,3.42351706 19.9777953,3.46603675 C19.9777953,3.72446194 19.9071391,3.91753281 19.7657218,4.04524934 C19.6244094,4.17286089 19.4244094,4.23674541 19.1660367,4.23674541 C18.855958,4.23674541 18.6385302,4.13952756 18.5139108,3.94488189 C18.3891864,3.7503937 18.3268766,3.44934383 18.3268766,3.04188976 L18.3268766,2.55391076 C18.3268766,2.13433071 18.3914961,1.82808399 18.5207349,1.63496063 C18.6499213,1.44194226 18.8711286,1.34540682 19.1843045,1.34540682 C19.400105,1.34540682 19.5658268,1.38493438 19.6813648,1.46393701 C19.7968504,1.54304462 19.8782152,1.66619423 19.9253543,1.83338583 C19.9724934,2.00062992 19.996063,2.23170604 19.996063,2.52656168 L19.996063,3.00540682 L18.9426247,3.00540682 L18.9426247,3.00540682 Z" id="Fill-5" fill="#F6F6F7"></path>
                <path d="M7.7239895,2.95307087 L7.007979,0.367244094 L7.63275591,0.367244094 L7.88356955,1.53931759 C7.94745407,1.82818898 7.99454068,2.0744357 8.02493438,2.27811024 L8.0432021,2.27811024 C8.06446194,2.13217848 8.11160105,1.88745407 8.18456693,1.54388451 L8.44451444,0.367244094 L9.06929134,0.367244094 L8.34419948,2.95307087 L8.34419948,4.1935958 L7.7239895,4.1935958 L7.7239895,2.95307087" id="Fill-6" fill="#F6F6F7"></path>
                <path d="M12.6816798,1.39800525 L12.6816798,4.1935958 L12.1891339,4.1935958 L12.1343832,3.85154856 L12.1207349,3.85154856 C11.9869291,4.10997375 11.7862467,4.2391601 11.5187402,4.2391601 C11.3332808,4.2391601 11.1964829,4.1784252 11.108294,4.05674541 C11.020105,3.9352231 10.976063,3.74514436 10.976063,3.48671916 L10.976063,1.39800525 L11.6054068,1.39800525 L11.6054068,3.45023622 C11.6054068,3.57496063 11.6191076,3.66383202 11.6464567,3.71700787 C11.6738058,3.77023622 11.7194226,3.7967979 11.7832546,3.7967979 C11.8380052,3.7967979 11.8904462,3.78015748 11.9405774,3.74661417 C11.9907612,3.71322835 12.027979,3.67070866 12.052336,3.61900262 L12.052336,1.39800525 L12.6816798,1.39800525" id="Fill-7" fill="#F6F6F7"></path>
                <path d="M15.9098163,1.39800525 L15.9098163,4.1935958 L15.4172703,4.1935958 L15.3625197,3.85154856 L15.3489239,3.85154856 C15.2150131,4.10997375 15.0143832,4.2391601 14.7468766,4.2391601 C14.5614173,4.2391601 14.4246194,4.1784252 14.3364304,4.05674541 C14.2482415,3.9352231 14.2041995,3.74514436 14.2041995,3.48671916 L14.2041995,1.39800525 L14.8335433,1.39800525 L14.8335433,3.45023622 C14.8335433,3.57496063 14.8471916,3.66383202 14.8745407,3.71700787 C14.9019423,3.77023622 14.9475591,3.7967979 15.0113911,3.7967979 C15.0661417,3.7967979 15.1185827,3.78015748 15.1687139,3.74661417 C15.2188976,3.71322835 15.2561155,3.67070866 15.2804724,3.61900262 L15.2804724,1.39800525 L15.9098163,1.39800525" id="Fill-8" fill="#F6F6F7"></path>
                <polyline id="Fill-9" fill="#F6F6F7" points="14.391811 0.873543307 13.7670341 0.873543307 13.7670341 4.1935958 13.1513911 4.1935958 13.1513911 0.873543307 12.5266142 0.873543307 12.5266142 0.367349081 14.391811 0.367349081 14.391811 0.873543307"></polyline>
                <path d="M17.415853,2.98519685 C17.415853,3.18892388 17.4074016,3.34855643 17.3907087,3.46404199 C17.3740157,3.57968504 17.3458793,3.66173228 17.3063517,3.71034121 C17.2668241,3.75900262 17.2135433,3.78330709 17.1467717,3.78330709 C17.0950131,3.78330709 17.0471391,3.7711811 17.0030971,3.74677165 C16.9589501,3.72246719 16.9233071,3.68603675 16.8959055,3.63732283 L16.8959055,2.05028871 C16.9171654,1.9743832 16.9536483,1.912021 17.0053543,1.86330709 C17.0570604,1.81475066 17.1132283,1.7903937 17.1740682,1.7903937 C17.2379528,1.7903937 17.2872966,1.81548556 17.3223097,1.8656168 C17.3572178,1.91574803 17.3815748,2.00015748 17.3952756,2.11874016 C17.4089764,2.23727034 17.415853,2.40603675 17.415853,2.62493438 L17.415853,2.98519685 Z M17.9927034,1.84488189 C17.9546457,1.66860892 17.8930709,1.54094488 17.807979,1.46183727 C17.7228346,1.38283465 17.6057743,1.34330709 17.4568504,1.34330709 C17.3413123,1.34330709 17.2333858,1.3760105 17.1330709,1.44131234 C17.0327559,1.50671916 16.9551706,1.59259843 16.9004724,1.69900262 L16.895853,1.69900262 L16.8959055,0.225931759 L16.2893963,0.225931759 L16.2893963,4.19354331 L16.8092388,4.19354331 L16.8731234,3.92908136 L16.8867717,3.92908136 C16.9353806,4.02330709 17.0083465,4.09779528 17.1056693,4.15254593 C17.2029396,4.20724409 17.3109186,4.23459318 17.4295013,4.23459318 C17.6422572,4.23459318 17.7988451,4.13653543 17.8992126,3.94047244 C17.9995276,3.74430446 18.0497113,3.43805774 18.0497113,3.02152231 L18.0497113,2.5791601 C18.0497113,2.26603675 18.0306562,2.02131234 17.9927034,1.84488189 L17.9927034,1.84488189 Z" id="Fill-10" fill="#F6F6F7"></path>
            </g>
        </g>
    </g>
</svg>